<?xml version="1.0" encoding="UTF-8" standalone="no"?>
<!-- Created with Inkscape (http://www.inkscape.org/) -->

<svg
   width="300"
   height="300"
   viewBox="0 0 79.375 79.375"
   version="1.1"
   id="svg1"
   xml:space="preserve"
   inkscape:version="1.3.2 (091e20e, 2023-11-25, custom)"
   sodipodi:docname="brain_logo-300.svg"
   xmlns:inkscape="http://www.inkscape.org/namespaces/inkscape"
   xmlns:sodipodi="http://sodipodi.sourceforge.net/DTD/sodipodi-0.dtd"
   xmlns="http://www.w3.org/2000/svg"
   xmlns:svg="http://www.w3.org/2000/svg"><sodipodi:namedview
     id="namedview1"
     pagecolor="#ffffff"
     bordercolor="#000000"
     borderopacity="1"
     inkscape:showpageshadow="false"
     inkscape:pageopacity="0.0"
     inkscape:pagecheckerboard="true"
     inkscape:deskcolor="#dddddd"
     inkscape:document-units="mm"
     showgrid="false"
     inkscape:zoom="1.3843855"
     inkscape:cx="134.71681"
     inkscape:cy="136.1615"
     inkscape:window-width="1920"
     inkscape:window-height="991"
     inkscape:window-x="-9"
     inkscape:window-y="-9"
     inkscape:window-maximized="1"
     inkscape:current-layer="layer1"
     showborder="false"
     borderlayer="false" /><defs
     id="defs1" /><g
     inkscape:label="Layer 1"
     inkscape:groupmode="layer"
     id="layer1"><rect
       style="fill:#3c55f8;stroke-width:1.5875;stroke-linejoin:round;stroke-miterlimit:10.6;stroke:none;stroke-opacity:1;fill-opacity:1"
       id="rect2"
       width="82.181465"
       height="81.799232"
       x="-1.5289575"
       y="0" /><g
       id="g9"
       transform="matrix(1.3519594,0,0,1.3519594,-77.587454,-97.806428)"><path
         style="display:inline;fill:none;stroke:#ffffff;stroke-width:1.5875;stroke-miterlimit:0;stroke-dasharray:none;stroke-opacity:1"
         d="m 99.802389,85.004336 c -7.778695,-1.947016 -16.324585,-2.308778 -23.780134,1.057538 -4.722943,2.130667 -8.82589,5.6587 -11.626834,10.015581 -0.958055,1.787852 -1.604032,4.092385 -0.792691,6.145625 0.74555,1.23474 1.763112,1.54923 3.08988,1.86974 3.47156,0.6272 6.518773,-1.5425 9.388559,-3.14064 3.179606,-1.96324 6.26322,-4.103354 9.047472,-6.604907 2.089631,-2.004264 4.459317,-4.293769 6.647563,-6.478083 2.109436,-1.99071 5.035095,-3.649637 8.026185,-2.864854 z"
         id="path2"
         sodipodi:nodetypes="ccccccccc" /><path
         style="display:inline;fill:none;stroke:#ffffff;stroke-width:1.5875;stroke-miterlimit:0;stroke-dasharray:none;stroke-opacity:1"
         d="m 99.75976,84.996842 c 13.53888,4.157556 10.59372,12.801287 8.5088,14.988467"
         id="path3"
         sodipodi:nodetypes="cc" /><path
         style="display:inline;fill:none;stroke:#ffffff;stroke-width:1.5875;stroke-miterlimit:0;stroke-dasharray:none;stroke-opacity:1"
         d="m 63.244223,99.549999 c -1.226145,9.879711 4.08212,11.864391 9.65495,10.808921 6.879681,-1.30299 12.404919,-6.53165 16.941075,-9.28799"
         id="path4"
         sodipodi:nodetypes="csc" /><path
         style="display:inline;fill:none;stroke:#ffffff;stroke-width:1.5875;stroke-miterlimit:0;stroke-dasharray:none;stroke-opacity:1"
         d="m 107.39,100.83081 c -8.520149,7.04997 -16.255808,1.53036 -16.255808,1.53036 -3.959425,-2.869751 -5.142483,-4.037328 -6.999555,-5.578805"
         id="path5"
         sodipodi:nodetypes="ccc" /><path
         style="display:inline;fill:none;stroke:#ffffff;stroke-width:1.5875;stroke-miterlimit:0;stroke-dasharray:none;stroke-opacity:1"
         d="m 83.317363,95.975829 c -5.141676,-5.408028 -5.762082,-6.044526 -8.651392,-6.342878 -2.170202,-0.200071 -3.386414,0.115238 -4.729972,0.709494 -1.321363,0.755118 -0.740744,0.36474 -2.364985,1.65549"
         id="path6"
         sodipodi:nodetypes="cccc" /><path
         style="display:inline;fill:none;stroke:#ffffff;stroke-width:1.5875;stroke-linecap:butt;stroke-linejoin:round;stroke-miterlimit:10.6;stroke-dasharray:none;stroke-opacity:1"
         d="m 90.82048,100.58923 c 6.521279,-4.384149 12.96089,-3.508706 15.82431,-2.019251 2.94206,1.634321 3.50573,3.294141 3.67905,5.160231 0.16227,1.4384 -0.23059,2.91481 -1.67229,4.63465 -1.65439,1.75379 -4.22938,2.72472 -4.44354,4.01352 0.10711,1.78288 0.73436,2.51593 1.47056,4.07111 0.67702,1.43017 1.00601,2.34124 0.87066,4.19481 -6.05302,-5.47416 -11.795913,-10.0288 -15.671818,-11.37162 -2.026128,-0.79327 -3.423846,-1.06606 -5.351351,-1.14671 -4.882499,-0.34687 -7.473281,0.49958 -9.293195,1.2781"
         id="path7"
         sodipodi:nodetypes="cccccscccc" /><rect
         style="fill:#3d56fb;stroke-width:1.59106;stroke-linejoin:round;stroke-miterlimit:10.6"
         id="rect1"
         width="5.4048648"
         height="1.6286451"
         x="111.1207"
         y="-2.7956996"
         transform="matrix(0.28551741,0.23506743,-0.20705789,0.30643746,57.95978,74.494918)" /><rect
         style="fill:#3d56fb;fill-opacity:1;stroke:none;stroke-width:1.76774;stroke-linecap:butt;stroke-linejoin:round;stroke-miterlimit:10.6;stroke-dasharray:none;stroke-opacity:1"
         id="rect9-4"
         width="0.74392736"
         height="2.0223646"
         x="3.2763736"
         y="-149.01361"
         transform="matrix(-0.78305703,0.62194991,-0.74617178,-0.66575347,0,0)" /></g><rect
       style="fill:#3d56fb;stroke-width:0.79553;stroke-linejoin:round;stroke-miterlimit:10.6"
       id="rect1-9"
       width="3.2024999"
       height="0.81432259"
       x="-0.14296417"
       y="48.301369"
       transform="matrix(0.76403818,-0.64517104,0.71443104,0.69970586,0,0)" /></g></svg>
